<?xml version="1.0" encoding="UTF-8"?>
<svg width="287px" height="287px" viewBox="0 0 287 287" version="1.1" xmlns="http://www.w3.org/2000/svg" xmlns:xlink="http://www.w3.org/1999/xlink">
    <defs></defs>
    <g id="Page-1" stroke="none" stroke-width="1" fill="none" fill-rule="evenodd">
        <g id="Group" transform="translate(16.000000, 16.000000)">
            <path d="M185.947852,139.76925 C183.234551,135.116625 179.58833,131.497125 174.96646,128.932125 C171.783138,127.079625 167.189754,125.398125 161.164944,123.873375 C166.762463,121.9425 171.263267,119.555625 174.702963,116.605875 C178.114174,113.706 180.75626,110.343 182.572249,106.516875 C184.366873,102.697875 185.292672,98.67225 185.292672,94.4115 C185.292672,88.58325 183.576384,83.211 180.143809,78.316125 C176.689869,73.44975 171.783138,69.680625 165.409373,67.08 C161.699058,65.562375 157.098553,64.536375 151.800138,63.909375 L151.800138,44.956875 L133.804043,42 L133.804043,63.139875 L122.217321,63.139875 L122.217321,44.244375 L104.221227,42 L104.221227,63.139875 L66,63.139875 L66,80.97375 L71.056283,80.97375 C74.4390076,80.97375 76.7178957,81.28725 77.9427981,81.8715 C79.1320928,82.505625 79.9795543,83.325 80.4780611,84.358125 C80.9765679,85.412625 81.2044567,87.84225 81.2044567,91.66125 L81.2044567,163.42425 C81.2044567,167.1435 80.9623248,169.58025 80.4780611,170.670375 C79.9795543,171.732 79.1392143,172.5585 77.9427981,173.164125 C76.7250172,173.727 74.4390076,174.019125 71.056283,174.019125 L66,174.019125 L66,191.860125 L104.221227,191.860125 L104.221227,209.601375 L122.203078,213 L122.203078,191.860125 L133.383873,191.860125 C133.526304,191.860125 133.654491,191.845875 133.811165,191.845875 L133.811165,209.96475 L151.793016,213 L151.793016,190.791375 C157.589938,190.050375 162.489547,188.8605 166.385022,187.328625 C173.905353,184.307625 179.723639,179.9115 183.832759,174.16875 C187.963244,168.41175 190,162.14175 190,155.316 C189.992878,149.60175 188.632667,144.421875 185.947852,139.76925 Z M113.023432,83.916375 L127.124052,83.916375 C135.356536,83.916375 141.053756,84.429375 144.265564,85.44825 C147.47025,86.467125 149.905812,88.18425 151.586492,90.542625 C153.274294,92.979375 154.135998,95.865 154.135998,99.228 C154.135998,102.512625 153.238686,105.36975 151.451183,107.87775 C149.66368,110.3715 147.007351,112.231125 143.475075,113.43525 C139.942798,114.68925 134.48771,115.28775 127.116931,115.28775 L113.016311,115.28775 L113.016311,83.916375 L113.023432,83.916375 Z M152.847002,163.431375 C150.333104,166.6305 147.292212,168.718125 143.702963,169.737 C140.127958,170.763 135.591546,171.283125 130.136458,171.283125 L120.750287,171.283125 C117.616816,171.283125 115.701126,171.11925 114.996095,170.77725 C114.276821,170.421 113.778314,169.829625 113.472088,168.98175 C113.208592,168.290625 113.073283,166.0035 113.023432,162.034875 L113.023432,134.1975 L129.637951,134.1975 C136.958879,134.1975 142.392603,134.8815 145.939122,136.228125 C149.485642,137.57475 152.163336,139.584 153.929474,142.227375 C155.73122,144.87075 156.600046,148.1055 156.600046,151.9245 C156.621411,156.377625 155.360901,160.218 152.847002,163.431375 Z" id="Shape" fill="#2E7EB7" fill-rule="nonzero"></path>
            <circle id="Oval" stroke="#2E7EB7" stroke-width="32" cx="127.5" cy="127.5" r="127.5"></circle>
        </g>
    </g>
</svg>